ffmpeg version 2.8.15-0ubuntu0.16.04.1 Copyright (c) 2000-2018 the FFmpeg developers
  built with gcc 5.4.0 (Ubuntu 5.4.0-6ubuntu1~16.04.10) 20160609
  configuration: --prefix=/usr --extra-version=0ubuntu0.16.04.1 --build-suffix=-ffmpeg --toolchain=hardened --libdir=/usr/lib/x86_64-linux-gnu --incdir=/usr/include/x86_64-linux-gnu --cc=cc --cxx=g++ --enable-gpl --enable-shared --disable-stripping --disable-decoder=libopenjpeg --disable-decoder=libschroedinger --enable-avresample --enable-avisynth --enable-gnutls --enable-ladspa --enable-libass --enable-libbluray --enable-libbs2b --enable-libcaca --enable-libcdio --enable-libflite --enable-libfontconfig --enable-libfreetype --enable-libfribidi --enable-libgme --enable-libgsm --enable-libmodplug --enable-libmp3lame --enable-libopenjpeg --enable-libopus --enable-libpulse --enable-librtmp --enable-libschroedinger --enable-libshine --enable-libsnappy --enable-libsoxr --enable-libspeex --enable-libssh --enable-libtheora --enable-libtwolame --enable-libvorbis --enable-libvpx --enable-libwavpack --enable-libwebp --enable-libx265 --enable-libxvid --enable-libzvbi --enable-openal --enable-opengl --enable-x11grab --enable-libdc1394 --enable-libiec61883 --enable-libzmq --enable-frei0r --enable-libx264 --enable-libopencv
  libavutil      54. 31.100 / 54. 31.100
  libavcodec     56. 60.100 / 56. 60.100
  libavformat    56. 40.101 / 56. 40.101
  libavdevice    56.  4.100 / 56.  4.100
  libavfilter     5. 40.101 /  5. 40.101
  libavresample   2.  1.  0 /  2.  1.  0
  libswscale      3.  1.101 /  3.  1.101
  libswresample   1.  2.101 /  1.  2.101
  libpostproc    53.  3.100 / 53.  3.100
Input #0, image2pipe, from 'pipe:':
  Duration: N/A, bitrate: N/A
    Stream #0:0: Video: ppm, rgb24, 512x512, 12 fps, 12 tbr, 12 tbn, 12 tbc
[libx264 @ 0x13a1c00] using cpu capabilities: MMX2 SSE2Fast SSSE3 SSE4.2 AVX
[libx264 @ 0x13a1c00] profile High, level 2.2
[libx264 @ 0x13a1c00] 264 - core 148 r2643 5c65704 - H.264/MPEG-4 AVC codec - Copyleft 2003-2015 - http://www.videolan.org/x264.html - options: cabac=1 ref=3 deblock=1:0:0 analyse=0x3:0x113 me=hex subme=7 psy=1 psy_rd=1.00:0.00 mixed_ref=1 me_range=16 chroma_me=1 trellis=1 8x8dct=1 cqm=0 deadzone=21,11 fast_pskip=1 chroma_qp_offset=-2 threads=12 lookahead_threads=2 sliced_threads=0 nr=0 decimate=1 interlaced=0 bluray_compat=0 constrained_intra=0 bframes=3 b_pyramid=2 b_adapt=1 b_bias=0 direct=1 weightb=1 open_gop=0 weightp=2 keyint=250 keyint_min=12 scenecut=40 intra_refresh=0 rc_lookahead=40 rc=abr mbtree=1 bitrate=400 ratetol=1.0 qcomp=0.60 qpmin=0 qpmax=69 qpstep=4 ip_ratio=1.40 aq=1:1.00
Output #0, mp4, to './mission_records/7ec8865b-9e19-4663-b3a5-58c00a49081e/video.mp4':
  Metadata:
    encoder         : Lavf56.40.101
    Stream #0:0: Video: h264 (libx264) ([33][0][0][0] / 0x0021), yuv420p, 512x512, q=-1--1, 400 kb/s, 12 fps, 12288 tbn, 12 tbc
    Metadata:
      encoder         : Lavc56.60.100 libx264
Stream mapping:
  Stream #0:0 -> #0:0 (ppm (native) -> h264 (libx264))
frame=   14 fps=0.0 q=0.0 size=       0kB time=00:00:00.00 bitrate=N/A    frame=   19 fps= 18 q=0.0 size=       0kB time=00:00:00.00 bitrate=N/A    frame=   25 fps= 15 q=0.0 size=       0kB time=00:00:00.00 bitrate=N/A    frame=   31 fps= 14 q=0.0 size=       0kB time=00:00:00.00 bitrate=N/A    frame=   37 fps= 13 q=0.0 size=       0kB time=00:00:00.00 bitrate=N/A    frame=   43 fps= 13 q=0.0 size=       0kB time=00:00:00.00 bitrate=N/A    frame=   49 fps= 13 q=0.0 size=       0kB time=00:00:00.00 bitrate=N/A    frame=   54 fps= 12 q=0.0 size=       0kB time=00:00:00.00 bitrate=N/A    frame=   60 fps= 12 q=39.0 size=      56kB time=00:00:00.16 bitrate=2751.8kbits/s    frame=   66 fps= 12 q=42.0 size=     145kB time=00:00:00.66 bitrate=1784.5kbits/s    frame=   72 fps= 12 q=43.0 size=     208kB time=00:00:01.16 bitrate=1459.9kbits/s    frame=   78 fps= 12 q=43.0 size=     222kB time=00:00:01.66 bitrate=1091.7kbits/s    frame=   84 fps= 12 q=43.0 size=     241kB time=00:00:02.16 bitrate= 910.9kbits/s    frame=   90 fps= 12 q=41.0 size=     247kB time=00:00:02.66 bitrate= 759.1kbits/s    frame=   96 fps= 11 q=40.0 size=     256kB time=00:00:03.16 bitrate= 662.5kbits/s    frame=  102 fps= 11 q=38.0 size=     264kB time=00:00:03.66 bitrate= 589.2kbits/s    frame=  108 fps= 11 q=37.0 size=     284kB time=00:00:04.16 bitrate= 558.7kbits/s    frame=  114 fps= 11 q=38.0 size=     296kB time=00:00:04.66 bitrate= 519.2kbits/s    frame=  120 fps= 11 q=38.0 size=     321kB time=00:00:05.16 bitrate= 509.0kbits/s    frame=  126 fps= 11 q=38.0 size=     344kB time=00:00:05.66 bitrate= 497.6kbits/s    frame=  132 fps= 11 q=38.0 size=     368kB time=00:00:06.16 bitrate= 488.9kbits/s    frame=  138 fps= 11 q=37.0 size=     381kB time=00:00:06.66 bitrate= 468.6kbits/s    frame=  143 fps= 11 q=37.0 size=     396kB time=00:00:07.08 bitrate= 457.8kbits/s    frame=  149 fps= 11 q=36.0 size=     410kB time=00:00:07.58 bitrate= 442.4kbits/s    frame=  155 fps= 11 q=36.0 size=     429kB time=00:00:08.08 bitrate= 434.3kbits/s    frame=  161 fps= 11 q=36.0 size=     456kB time=00:00:08.58 bitrate= 435.6kbits/s    frame=  167 fps= 11 q=37.0 size=     485kB time=00:00:09.08 bitrate= 437.2kbits/s    